<svg width="39" height="35" viewBox="0 0 39 35" fill="none" xmlns="http://www.w3.org/2000/svg">
<g clip-path="url(#clip0_0_1469)">
<path d="M13.1149 20.0784L18.7378 25.2336C18.887 25.3703 19.0892 25.4471 19.3 25.4471C19.5108 25.4471 19.713 25.3703 19.8621 25.2336L25.4851 20.0784C25.6342 19.9417 25.8364 19.8649 26.0472 19.8649C26.2581 19.8649 26.4603 19.9417 26.6094 20.0784L29.0837 22.3461C29.2328 22.4829 29.3165 22.6683 29.3165 22.8616C29.3165 23.055 29.2328 23.2404 29.0837 23.3772L19.8621 31.834C19.713 31.9707 19.5108 32.0475 19.3 32.0475C19.0892 32.0475 18.887 31.9707 18.7378 31.834L9.51784 23.3772C9.36879 23.2404 9.28505 23.055 9.28505 22.8616C9.28505 22.6683 9.36879 22.4829 9.51784 22.3461L11.9922 20.0784C12.1413 19.9417 12.3435 19.8649 12.5543 19.8649C12.7652 19.8649 12.9674 19.9417 13.1165 20.0784H13.1149ZM32.3468 14.6315L32.4565 14.7161L34.9309 16.9838C35.0626 17.1045 35.144 17.2637 35.1608 17.4337C35.1777 17.6037 35.129 17.7738 35.0231 17.9143L34.9309 18.0163L32.4565 20.284C32.325 20.4048 32.1514 20.4795 31.966 20.4949C31.7806 20.5104 31.5951 20.4657 31.442 20.3686L31.3323 20.284L28.8579 18.0149C28.7268 17.8941 28.646 17.7351 28.6295 17.5654C28.6129 17.3957 28.6617 17.2261 28.7673 17.0859L28.8579 16.9838L31.3323 14.7161C31.447 14.6109 31.5942 14.5403 31.7539 14.514C31.9137 14.4876 32.0784 14.5068 32.226 14.5688L32.3468 14.6315ZM7.2693 14.7161L9.74365 16.9838C9.89271 17.1206 9.97645 17.306 9.97645 17.4994C9.97645 17.6927 9.89271 17.8781 9.74365 18.0149L7.2693 20.2855C7.12019 20.4222 6.91799 20.499 6.70716 20.499C6.49633 20.499 6.29413 20.4222 6.14502 20.2855L3.66907 18.0149C3.52002 17.8781 3.43628 17.6927 3.43628 17.4994C3.43628 17.306 3.52002 17.1206 3.66907 16.9838L6.14343 14.7161C6.29254 14.5794 6.49474 14.5026 6.70557 14.5026C6.9164 14.5026 7.12019 14.5794 7.2693 14.7161ZM19.7524 14.6315L19.8637 14.7161L22.3365 16.9838C22.4682 17.1045 22.5496 17.2637 22.5664 17.4337C22.5833 17.6037 22.5345 17.7738 22.4287 17.9143L22.3365 18.0163L19.8637 20.284C19.7322 20.4048 19.5585 20.4795 19.3731 20.4949C19.1878 20.5104 19.0023 20.4657 18.8492 20.3686L18.7378 20.284L16.2651 18.0149C16.1338 17.8943 16.0526 17.7354 16.0358 17.5657C16.0189 17.396 16.0674 17.2262 16.1728 17.0859L16.2651 16.9838L18.7378 14.7161C18.8526 14.6109 18.9998 14.5403 19.1595 14.514C19.3193 14.4876 19.484 14.5068 19.6315 14.5688L19.7524 14.6315ZM19.8637 3.16613L29.0837 11.6215C29.2328 11.7583 29.3165 11.9437 29.3165 12.1371C29.3165 12.3304 29.2328 12.5158 29.0837 12.6526L26.6094 14.9218C26.4603 15.0584 26.2581 15.1352 26.0472 15.1352C25.8364 15.1352 25.6342 15.0584 25.4851 14.9218L19.8637 9.76654C19.7899 9.69864 19.7021 9.64476 19.6055 9.608C19.5089 9.57124 19.4054 9.55232 19.3008 9.55232C19.1962 9.55232 19.0926 9.57124 18.996 9.608C18.8994 9.64476 18.8117 9.69864 18.7378 9.76654L13.1165 14.9218C12.9674 15.0584 12.7652 15.1352 12.5543 15.1352C12.3435 15.1352 12.1413 15.0584 11.9922 14.9218L9.51784 12.6526C9.36879 12.5158 9.28505 12.3304 9.28505 12.1371C9.28505 11.9437 9.36879 11.7583 9.51784 11.6215L18.7378 3.16613C18.887 3.02943 19.0892 2.95264 19.3 2.95264C19.5108 2.95264 19.7146 3.02943 19.8637 3.16613Z" fill="#F8F8F8"/>
</g>
<defs>
<clipPath id="clip0_0_1469">
<rect width="38.1649" height="35" fill="white" transform="translate(0.218262)"/>
</clipPath>
</defs>
</svg>
