  <svg width="40" height="35" viewBox="0 0 40 35" fill="none" xmlns="http://www.w3.org/2000/svg">
<path d="M31.3911 16.8247L19.3599 1.51215C19.2575 1.38193 19.1269 1.27664 18.978 1.20425C18.829 1.13185 18.6655 1.09424 18.4999 1.09424C18.3343 1.09424 18.1708 1.13185 18.0218 1.20425C17.8729 1.27664 17.7423 1.38193 17.6399 1.51215L5.60868 16.8247C5.45745 17.0173 5.37524 17.2551 5.37524 17.5C5.37524 17.745 5.45745 17.9828 5.60868 18.1754L17.6399 33.4879C17.7423 33.6182 17.8729 33.7234 18.0218 33.7958C18.1708 33.8682 18.3343 33.9058 18.4999 33.9058C18.6655 33.9058 18.829 33.8682 18.978 33.7958C19.1269 33.7234 19.2575 33.6182 19.3599 33.4879L31.3911 18.1754C31.5423 17.9828 31.6245 17.745 31.6245 17.5C31.6245 17.2551 31.5423 17.0173 31.3911 16.8247ZM19.5936 21.2707V5.34985L28.8112 17.0803L19.5936 21.2707ZM17.4061 21.2707L8.18857 17.0803L17.4061 5.34985V21.2707ZM17.4061 23.6729V29.6502L10.1013 20.3534L17.4061 23.6729Z" fill="#F8F8F8"/>
</svg>