<svg
                      width="31"
                      height="30"
                      viewBox="0 0 31 30"
                      fill="none"
                      xmlns="http://www.w3.org/2000/svg"
                    >
                      <g clip-path="url(#clip0_2_452)">
                        <path
                          d="M30.0287 0L16.9247 10.1599L19.3615 4.17238L30.0287 0Z"
                          fill="#E17726"
                        />
                        <path
                          d="M0.936162 0.0119934L11.5748 4.17312L13.8886 10.2391L0.936162 0.0119934ZM24.7552 21.6072L30.547 21.7227L28.5228 28.928L21.4556 26.8891L24.7552 21.6072ZM6.17884 21.6072L9.46618 26.8891L2.41086 28.9281L0.398987 21.7227L6.17884 21.6072Z"
                          fill="#E27625"
                        />
                        <path
                          d="M13.5741 8.69399L13.8107 16.7044L6.72821 16.3667L8.74283 13.182L8.76835 13.1514L13.5741 8.69399ZM17.2868 8.60461L22.1659 13.1516L22.1912 13.1821L24.2058 16.3669L17.1248 16.7044L17.2868 8.60461ZM9.67367 21.6305L13.5409 24.7879L9.04857 27.0605L9.67367 21.6305ZM21.2613 21.63L21.8734 27.0606L17.3936 24.7876L21.2613 21.63Z"
                          fill="#E27625"
                        />
                        <path
                          d="M17.4924 24.4902L22.0383 26.7967L17.8097 28.9025L17.8536 27.5107L17.4924 24.4902ZM13.4404 24.4912L13.0934 27.488L13.1219 28.9009L8.88342 26.7967L13.4404 24.4912Z"
                          fill="#D5BFB2"
                        />
                        <path
                          d="M12.1277 17.7499L13.3156 20.3659L9.27124 19.1244L12.1277 17.7499ZM18.8063 17.7501L21.6762 19.1244L17.6186 20.3655L18.8063 17.7501Z"
                          fill="#233447"
                        />
                        <path
                          d="M9.98272 21.6037L9.32899 27.2337L5.82501 21.7269L9.98272 21.6037ZM20.9517 21.6039L25.1095 21.7269L21.5924 27.234L20.9517 21.6039ZM24.3081 16.0484L21.2822 19.2797L18.9492 18.1626L17.8323 20.6231L17.1001 16.392L24.3081 16.0484ZM6.62451 16.0484L13.834 16.392L13.1016 20.6231L11.9844 18.163L9.66385 19.2799L6.62451 16.0484Z"
                          fill="#CC6228"
                        />
                        <path
                          d="M6.42065 15.3853L9.84412 19.0254L9.96269 22.619L6.42065 15.3853ZM24.517 15.3788L20.9685 22.6254L21.1021 19.0254L24.517 15.3788ZM13.6666 15.607L13.8044 16.5158L14.1449 18.7796L13.926 25.7328L12.8911 20.1471L12.8907 20.0894L13.6666 15.607ZM17.2658 15.5944L18.0437 20.0894L18.0433 20.1471L17.0059 25.7468L16.9648 24.3461L16.8029 18.7384L17.2658 15.5944Z"
                          fill="#E27525"
                        />
                        <path
                          d="M21.4064 18.8807L21.2906 22.003L17.6791 24.9514L16.9491 24.4109L17.7674 19.994L21.4064 18.8807ZM9.54028 18.8807L13.1667 19.994L13.985 24.4109L13.2549 24.9514L9.64335 22.0027L9.54028 18.8807Z"
                          fill="#F5841F"
                        />
                        <path
                          d="M8.19238 26.1072L12.8128 28.4012L12.7933 27.4216L13.1799 27.066H17.7529L18.1534 27.4204L18.1239 28.3992L22.7151 26.113L20.481 28.0475L17.7796 29.9916H13.1428L10.4432 28.0395L8.19238 26.1072Z"
                          fill="#C0AC9D"
                        />
                        <path
                          d="M17.1615 24.1849L17.8148 24.6685L18.1976 27.869L17.6436 27.3789H13.2923L12.7488 27.8789L13.1191 24.6688L13.7725 24.1849H17.1615Z"
                          fill="#161616"
                        />
                        <path
                          d="M29.1636 0.28125L30.7366 5.22587L29.7542 10.2255L30.4537 10.7909L29.5071 11.5476L30.2186 12.1234L29.2765 13.0223L29.8549 13.4611L28.32 15.3394L22.025 13.4187L21.9705 13.3881L17.4341 9.37838L29.1636 0.28125ZM1.77062 0.28125L13.5002 9.37838L8.96373 13.3881L8.90922 13.4187L2.61414 15.3394L1.07932 13.4611L1.65718 13.0226L0.71572 12.1234L1.42575 11.5483L0.464967 10.7894L1.19086 10.2236L0.197632 5.22612L1.77062 0.28125Z"
                          fill="#763E1A"
                        />
                        <path
                          d="M21.7171 12.9988L28.3871 15.0336L30.5541 22.0319H24.8371L20.898 22.0839L23.7627 16.2329L21.7171 12.9988ZM9.21713 12.9988L7.17114 16.2329L10.0362 22.0839L6.09893 22.0319H0.392212L2.547 15.0338L9.21713 12.9988ZM19.6882 4.13901L17.8225 9.41888L17.4266 16.5514L17.2751 18.787L17.2631 24.498H13.671L13.6593 18.7978L13.5074 16.5495L13.1113 9.41888L11.2459 4.13901H19.6882Z"
                          fill="#F5841F"
                        />
                      </g>
                      <defs>
                        <clipPath id="clip0_2_452">
                          <rect
                            width="30.5389"
                            height="30"
                            fill="white"
                            transform="translate(0.197632)"
                          />
                        </clipPath>
                      </defs>
                    </svg>